<?xml version="1.0" encoding="utf-8"?>
<!-- Generator: Adobe Illustrator 22.0.1, SVG Export Plug-In . SVG Version: 6.00 Build 0)  -->
<svg version="1.1" xmlns="http://www.w3.org/2000/svg" xmlns:xlink="http://www.w3.org/1999/xlink" x="0px" y="0px"
	 viewBox="0 0 512 475" style="enable-background:new 0 0 512 475;" xml:space="preserve">
<style type="text/css">
	.st0{fill:#FF576B;}
	.st1{fill:#6D6E71;}
	.st2{fill:#FFFFFF;}
	.st3{fill:url(#SVGID_1_);}
	.st4{fill:url(#SVGID_2_);}
	.st5{fill:#2BEDA7;}
	.st6{fill:url(#SVGID_3_);}
	.st7{fill:url(#SVGID_4_);}
	.st8{fill:url(#SVGID_5_);}
	.st9{fill:url(#SVGID_6_);}
	.st10{fill:url(#SVGID_7_);}
	.st11{fill:url(#SVGID_8_);}
	.st12{fill:url(#SVGID_9_);}
	.st13{fill:url(#SVGID_10_);}
	.st14{fill:url(#SVGID_11_);}
	.st15{fill:url(#SVGID_12_);}
	.st16{fill:url(#SVGID_13_);}
	.st17{fill:url(#SVGID_14_);}
	.st18{fill:url(#SVGID_15_);}
	.st19{fill:url(#SVGID_16_);}
	.st20{fill:url(#SVGID_17_);}
	.st21{fill:url(#SVGID_18_);}
	.st22{fill:url(#SVGID_19_);}
	.st23{fill:url(#SVGID_20_);}
	.st24{fill:url(#SVGID_21_);}
	.st25{fill:url(#SVGID_22_);}
	.st26{fill:url(#SVGID_23_);}
	.st27{fill:url(#SVGID_24_);}
	.st28{filter:url(#Adobe_OpacityMaskFilter);}
	.st29{mask:url(#mask-2_6_);}
	.st30{fill:#018AFD;}
	.st31{fill:#00A2FD;}
	.st32{fill:#06C0FD;}
	.st33{fill:#03B5FD;}
	.st34{fill:#0074FD;}
	.st35{fill:#005CFD;}
	.st36{filter:url(#Adobe_OpacityMaskFilter_1_);}
	.st37{mask:url(#mask-4_6_);fill:#003CFD;}
	.st38{fill:#0E13FD;}
	.st39{filter:url(#Adobe_OpacityMaskFilter_2_);}
	.st40{mask:url(#mask-2_5_);fill:#FFFFFF;}
	.st41{filter:url(#Adobe_OpacityMaskFilter_3_);}
	.st42{mask:url(#mask-4_5_);fill:#003CFD;}
	.st43{filter:url(#Adobe_OpacityMaskFilter_4_);}
	.st44{mask:url(#mask-2_1_);fill:#FFFFFF;}
	.st45{filter:url(#Adobe_OpacityMaskFilter_5_);}
	.st46{mask:url(#mask-4_4_);fill:#FFFFFF;}
	.st47{fill:#018BFE;}
	.st48{fill:#02C2FE;}
	.st49{fill:#04B6FE;}
	.st50{fill:#0095FE;}
	.st51{fill:#0074FE;}
	.st52{fill:#005CFE;}
	.st53{fill:#003DFE;}
	.st54{fill:#0E13FE;}
	.st55{filter:url(#Adobe_OpacityMaskFilter_6_);}
	.st56{mask:url(#mask-2_7_);}
	.st57{filter:url(#Adobe_OpacityMaskFilter_7_);}
	.st58{mask:url(#mask-2_2_);fill:#FFFFFF;}
	.st59{filter:url(#Adobe_OpacityMaskFilter_8_);}
	.st60{mask:url(#mask-4_3_);fill:#003CFD;}
	.st61{filter:url(#Adobe_OpacityMaskFilter_9_);}
	.st62{mask:url(#mask-4_7_);fill:#003CFD;}
	.st63{filter:url(#Adobe_OpacityMaskFilter_10_);}
	.st64{mask:url(#mask-4_1_);fill:#003CFD;}
	.st65{fill:url(#SVGID_25_);}
	.st66{fill:url(#SVGID_26_);}
	.st67{fill:url(#SVGID_27_);}
	.st68{fill:url(#SVGID_28_);}
	.st69{fill:url(#SVGID_29_);}
	.st70{fill:url(#SVGID_30_);}
	.st71{fill:url(#SVGID_31_);}
	.st72{fill:url(#SVGID_32_);}
	.st73{fill:url(#SVGID_33_);}
	.st74{fill:url(#SVGID_34_);}
	.st75{fill:url(#SVGID_35_);}
	.st76{fill:url(#SVGID_36_);}
	.st77{fill:url(#SVGID_37_);}
	.st78{fill:url(#SVGID_38_);}
	.st79{fill:url(#SVGID_39_);}
	.st80{fill:url(#SVGID_40_);}
	.st81{fill:url(#SVGID_41_);}
	.st82{fill:url(#SVGID_42_);}
	.st83{fill:url(#SVGID_43_);}
	.st84{fill:url(#SVGID_44_);}
	.st85{fill:url(#SVGID_45_);}
	.st86{fill:url(#SVGID_46_);}
	.st87{fill:url(#SVGID_47_);}
	.st88{fill:url(#SVGID_48_);}
	.st89{fill:url(#SVGID_49_);}
	.st90{fill:url(#SVGID_50_);}
	.st91{fill:url(#SVGID_51_);}
	.st92{fill:url(#SVGID_52_);}
	.st93{fill:url(#SVGID_53_);}
	.st94{fill:url(#SVGID_54_);}
	.st95{fill:url(#SVGID_55_);}
	.st96{fill:url(#SVGID_56_);}
	.st97{fill:url(#SVGID_57_);}
	.st98{fill:url(#SVGID_58_);}
	.st99{fill:url(#SVGID_59_);}
	.st100{fill:url(#SVGID_60_);}
	.st101{fill:url(#SVGID_61_);}
	.st102{fill:url(#SVGID_62_);}
	.st103{fill:url(#SVGID_63_);}
	.st104{fill:url(#SVGID_64_);}
	.st105{fill:#BDBDBD;}
	.st106{fill:url(#SVGID_65_);}
	.st107{fill:url(#SVGID_66_);}
	.st108{fill:url(#SVGID_67_);}
	.st109{fill:url(#SVGID_68_);}
	.st110{fill:url(#SVGID_69_);}
	.st111{fill:url(#SVGID_70_);}
	.st112{fill:url(#SVGID_71_);}
	.st113{fill:url(#SVGID_72_);}
	.st114{fill:url(#SVGID_73_);}
	.st115{fill:url(#SVGID_74_);}
	.st116{fill:url(#SVGID_75_);}
	.st117{fill:url(#SVGID_76_);}
	.st118{fill:url(#SVGID_77_);}
	.st119{fill:url(#SVGID_78_);}
	.st120{fill:url(#SVGID_79_);}
	.st121{fill:url(#SVGID_80_);}
	.st122{display:none;}
	.st123{display:inline;}
</style>
<g id="Layer_1">
	<g>
		<g>
			<g>
				<linearGradient id="SVGID_1_" gradientUnits="userSpaceOnUse" x1="494.2216" y1="89.0164" x2="494.2216" y2="302.3534">
					<stop  offset="0" style="stop-color:#2BEDA7"/>
					<stop  offset="1" style="stop-color:#018AFD"/>
				</linearGradient>
				<polygon class="st3" points="476.4,89 476.4,281.8 512,302.4 512,109.6 				"/>
				<linearGradient id="SVGID_2_" gradientUnits="userSpaceOnUse" x1="17.7781" y1="89.0217" x2="17.7781" y2="302.3659">
					<stop  offset="0" style="stop-color:#2BEDA7"/>
					<stop  offset="1" style="stop-color:#018AFD"/>
				</linearGradient>
				<polygon class="st4" points="0,302.4 35.6,281.8 35.6,89 0,109.6 				"/>
			</g>
			<g>
				<polygon class="st5" points="174.2,300.5 337.8,394.9 337.8,353.8 184.7,265.4 174.2,271.5 174.2,271.5 				"/>
				<path class="st5" d="M347.2,449.6l-172.9-99.8v41.1l46.2,26.7l-55.6,32.1c-3.7,2.2-3.7,7.6,0,9.7L192,475l64-36.9l64,36.9
					l27.1-15.7C350.9,457.1,350.9,451.7,347.2,449.6z"/>
			</g>
			<g>
				<linearGradient id="SVGID_3_" gradientUnits="userSpaceOnUse" x1="494.2216" y1="183.4557" x2="494.2216" y2="380.5421">
					<stop  offset="0" style="stop-color:#2BEDA7"/>
					<stop  offset="1" style="stop-color:#018AFD"/>
				</linearGradient>
				<path class="st6" d="M476.4,204v170.9c0,4.3,4.7,7,8.4,4.9l24.3-14.1c1.7-1,2.8-2.9,2.8-4.9V183.5L476.4,204z"/>
				<linearGradient id="SVGID_4_" gradientUnits="userSpaceOnUse" x1="415.9966" y1="228.6177" x2="415.9966" y2="425.704">
					<stop  offset="0" style="stop-color:#2BEDA7"/>
					<stop  offset="1" style="stop-color:#018AFD"/>
				</linearGradient>
				<path class="st7" d="M406.6,424.9l22.9-13.2c2.6-1.5,4.2-4.3,4.2-7.3V228.6l-35.6,20.5v170.9
					C398.2,424.4,402.9,427.1,406.6,424.9z"/>
				<linearGradient id="SVGID_5_" gradientUnits="userSpaceOnUse" x1="337.7726" y1="273.7769" x2="337.7726" y2="474.9643">
					<stop  offset="0" style="stop-color:#2BEDA7"/>
					<stop  offset="1" style="stop-color:#018AFD"/>
				</linearGradient>
				<path class="st8" d="M320,475l32.8-18.9c1.7-1,2.8-2.9,2.8-4.9V273.8L320,294.3V475z"/>
				<linearGradient id="SVGID_6_" gradientUnits="userSpaceOnUse" x1="174.2449" y1="273.7773" x2="174.2449" y2="474.9612">
					<stop  offset="0" style="stop-color:#2BEDA7"/>
					<stop  offset="1" style="stop-color:#018AFD"/>
				</linearGradient>
				<path class="st9" d="M159.3,456.1L192,475V294.3l-35.6-20.5v177.4C156.5,453.2,157.5,455.1,159.3,456.1z"/>
				<linearGradient id="SVGID_7_" gradientUnits="userSpaceOnUse" x1="96.0212" y1="228.6163" x2="96.0212" y2="425.7035">
					<stop  offset="0" style="stop-color:#2BEDA7"/>
					<stop  offset="1" style="stop-color:#018AFD"/>
				</linearGradient>
				<path class="st10" d="M82.4,411.7l22.9,13.2c3.7,2.2,8.4-0.5,8.4-4.9V249.1l-35.6-20.5v175.8C78.2,407.4,79.8,410.2,82.4,411.7z
					"/>
				<linearGradient id="SVGID_8_" gradientUnits="userSpaceOnUse" x1="17.7973" y1="183.4524" x2="17.7973" y2="380.5396">
					<stop  offset="0" style="stop-color:#2BEDA7"/>
					<stop  offset="1" style="stop-color:#018AFD"/>
				</linearGradient>
				<path class="st11" d="M4.2,366.5l22.9,13.2c3.7,2.2,8.4-0.5,8.4-4.9V204L0,183.5v175.8C0,362.3,1.6,365,4.2,366.5z"/>
			</g>
			<g>
				<path class="st5" d="M512,109.6L476.4,89l-64,36.9l-42.6-24.6l55.6-32.1c3.7-2.2,3.7-7.6,0-9.7l-22.9-13.2
					c-2.6-1.5-5.8-1.5-8.4,0l-59.8,34.5l-42.6-24.6l55.6-32.1c3.7-2.2,3.7-7.6,0-9.7L324.2,1.1c-2.6-1.5-5.8-1.5-8.4,0L256,35.7
					L196.2,1.1c-2.6-1.5-5.8-1.5-8.4,0l-22.9,13.2c-3.7,2.2-3.7,7.6,0,9.7L476.4,204l35.6-20.5l-64-37L512,109.6z"/>
				<path class="st5" d="M109.6,46.3L86.6,59.5c-3.7,2.2-3.7,7.6,0,9.7l311.6,179.9l35.6-20.5L118,46.3
					C115.4,44.8,112.2,44.8,109.6,46.3z"/>
				<polygon class="st5" points="0,109.6 64,146.5 0,183.5 35.6,204 99.6,167.1 142.2,191.7 78.2,228.6 113.8,249.2 177.8,212.2 
					220.4,236.8 156.4,273.8 192,294.3 256,257.4 320,294.3 355.6,273.8 35.6,89 				"/>
			</g>
		</g>
	</g>
</g>
<g id="nyt_x5F_exporter_x5F_info" class="st122">
</g>
</svg>
