<?xml version="1.0" encoding="utf-8"?>
<!-- Generator: Adobe Illustrator 19.0.0, SVG Export Plug-In . SVG Version: 6.00 Build 0)  -->
<svg version="1.1" id="Layer_1" xmlns="http://www.w3.org/2000/svg" xmlns:xlink="http://www.w3.org/1999/xlink" x="0px" y="0px"
	 viewBox="0 0 255.1 255.1" enable-background="new 0 0 255.1 255.1" xml:space="preserve">
<g>
	<path fill="#505364" d="M216.5,82.2h-42.7l-3.2-5.6l7.8-13.6L168,44.9h-8.2l15.9-27.5c1.7-2.9,0.7-6.7-2.3-8.4
		c-3-1.7-6.7-0.7-8.4,2.3l-19.6,33.9h-35.6L90.2,11.3c-1.7-3-5.5-4-8.4-2.3c-2.9,1.7-4,5.5-2.3,8.4l15.9,27.5h-8.2L76.7,63l7.8,13.6
		l-3.2,5.6H38.6l-24.9,43.2l24.9,43.2h42.7l19.6,33.9l0.7-0.4l-0.7,0.4l26.7,44.5l26.6-44.5l0,0l19.6-33.9h42.7l24.9-43.2
		L216.5,82.2z M88.1,70.4L83.8,63l6.9-11.9h8.2l0.2,0.3L88.1,70.4z M156,51.4l0.2-0.3h8.2l6.9,11.9l-4.3,7.4L156,51.4z"/>
	<polygon fill="#FFFFFF" points="81.3,94.5 80.8,94.5 45.7,94.5 27.9,125.3 45.7,156.1 80.9,156.1 81.3,156.1 99.1,125.3 	"/>
	<polygon fill="#FFFFFF" points="209.4,94.5 173.8,94.5 173.8,94.6 156,125.3 173.8,156.1 173.9,156.1 209.4,156.1 227.2,125.3 	"/>
	<polygon fill="#61C202" points="145.4,57.5 109.8,57.5 109.7,57.6 92,88.3 109.8,119.2 109.8,119.2 145.4,119.2 163.1,88.3 	"/>
	<polygon fill="#61C202" points="143.7,196 143.7,196 127.6,222.9 111.5,196.2 111.5,196.2 92,162.3 107,136.3 109.8,131.5 
		145.3,131.5 163.1,162.3 	"/>
</g>
<rect x="0" y="0" fill="none" width="255.1" height="255.1"/>
</svg>
