<?xml version="1.0" encoding="UTF-8" standalone="no"?>
<!-- Created with Inkscape (http://www.inkscape.org/) -->

<svg
   xmlns:dc="http://purl.org/dc/elements/1.1/"
   xmlns:cc="http://creativecommons.org/ns#"
   xmlns:rdf="http://www.w3.org/1999/02/22-rdf-syntax-ns#"
   xmlns:svg="http://www.w3.org/2000/svg"
   xmlns="http://www.w3.org/2000/svg"
   xmlns:sodipodi="http://sodipodi.sourceforge.net/DTD/sodipodi-0.dtd"
   xmlns:inkscape="http://www.inkscape.org/namespaces/inkscape"
   version="1.1"
   id="svg10"
   width="480"
   height="445.44"
   viewBox="0 0 480 445.44"
   sodipodi:docname="vitess.svg"
   inkscape:version="0.92.4 (5da689c313, 2019-01-14)">
  <metadata
     id="metadata16">
    <rdf:RDF>
      <cc:Work
         rdf:about="">
        <dc:format>image/svg+xml</dc:format>
        <dc:type
           rdf:resource="http://purl.org/dc/dcmitype/StillImage" />
        <dc:title></dc:title>
      </cc:Work>
    </rdf:RDF>
  </metadata>
  <defs
     id="defs14" />
  <sodipodi:namedview
     pagecolor="#ffffff"
     bordercolor="#666666"
     borderopacity="1"
     objecttolerance="10"
     gridtolerance="10"
     guidetolerance="10"
     inkscape:pageopacity="0"
     inkscape:pageshadow="2"
     inkscape:window-width="1920"
     inkscape:window-height="1531"
     id="namedview12"
     showgrid="false"
     inkscape:zoom="2.9498922"
     inkscape:cx="240"
     inkscape:cy="222.72"
     inkscape:window-x="1920"
     inkscape:window-y="30"
     inkscape:window-maximized="0"
     inkscape:current-layer="svg10" />
  <g
     id="g20"
     style="image-rendering:auto">
    <path
       style="fill:#f3aa59;stroke-width:0.31999999"
       d="M 237.021,435.13987 C 236.20898,433.83322 192.73965,354.00662 172.14374,316 161.17562,295.76 150.5178,276.104 148.45969,272.32 138.78336,254.52925 97.715696,179.23284 92.958432,170.56 90.013952,165.192 86.525107,158.784 85.205443,156.32 83.885779,153.856 65.165645,119.24825 43.605146,79.413878 19.691045,35.231085 4.5192582,6.8727418 4.6991875,6.6928125 4.8771786,6.5148214 23.63115,6.4300112 51.994157,6.4789328 L 98.994182,6.56 122.53709,49.656218 c 12.9486,23.702918 25.23769,46.256188 27.30909,50.118377 2.07139,3.862185 6.51479,12.044895 9.8742,18.183785 6.57565,12.01614 32.53792,59.83239 58.53188,107.80162 8.86963,16.368 17.14262,31.632 18.38442,33.92 1.24181,2.288 2.44821,4.16 2.6809,4.16 0.23269,0 2.76746,-4.32 5.63283,-9.6 21.89749,-40.3504 40.05365,-73.68225 43.14095,-79.2 4.29984,-7.68484 25.41243,-45.86288 36.54246,-66.08 4.2633,-7.744 15.14093,-27.616 24.17255,-44.16 9.03161,-16.544 19.88893,-36.416 24.12739,-44.16 L 380.64,6.56 427.50294,6.4789293 c 25.7746,-0.044589 46.98256,0.038569 47.12877,0.1847952 0.14624,0.1462265 -9.29293,17.6067085 -20.9759,38.8010725 C 397.18128,147.9164 377.41664,183.73204 354.95558,224.32 c -13.39206,24.2 -45.13165,81.64627 -70.5324,127.65837 -25.40075,46.01209 -46.354,83.71305 -46.56279,83.77987 -0.20878,0.0668 -0.58651,-0.21146 -0.83939,-0.61837 z"
       id="path34"
       inkscape:connector-curvature="0" />
    <path
       style="fill:#f6982a;stroke-width:0.31999999"
       d="M 215.40714,394.4808 C 203.20373,372.08435 192.96151,353.256 192.64665,352.64 c -1.34118,-2.62384 -37.75928,-69.74525 -59.29211,-109.28 -12.84517,-23.584 -25.7345,-47.272 -28.64296,-52.64 -2.90847,-5.368 -5.530537,-10.048 -5.826825,-10.4 C 98.214038,179.52317 87.056778,159.08036 86.4,157.4449 86.136,156.78751 77.070365,139.92147 66.254144,119.96482 55.437923,100.00817 37.273059,66.472 25.887778,45.44 L 5.1872678,7.2 51.78113,7.1189251 c 37.008393,-0.064395 46.673187,0.00144 46.979452,0.32 0.601754,0.6259235 47.160088,85.9217019 47.154088,86.3872219 -0.003,0.227619 -10.36129,19.637853 -23.01858,43.133853 -12.65729,23.496 -22.88408,42.76627 -22.7262,42.82283 0.15789,0.0566 1.26425,-0.67162 2.45859,-1.61817 4.01397,-3.18117 13.32238,-10.57196 19.53152,-15.50784 3.388,-2.69325 9.004,-7.15539 12.48,-9.91586 6.84131,-5.43303 9.50863,-7.55289 21.62101,-17.18334 4.36755,-3.47261 8.12448,-6.38423 8.34873,-6.47029 0.22425,-0.0861 0.56109,0.0301 0.74854,0.25811 0.25538,0.31065 22.55544,41.3551 36.38826,66.97456 29.49542,54.62779 36.66123,67.80158 37.1561,68.30857 0.40158,0.41143 0.50957,0.41143 0.88548,0 0.23547,-0.25771 2.95594,-5.14857 6.04548,-10.86857 12.62227,-23.36895 38.12967,-70.28246 38.53347,-70.8712 0.42318,-0.61698 0.43293,-0.61512 0.43293,0.0825 0,0.39251 -3.096,18.83211 -6.88,40.97688 -3.784,22.14478 -6.86825,40.61167 -6.8539,41.03755 0.0241,0.71564 0.0598,0.69745 0.4705,-0.24014 0.24441,-0.55795 13.70353,-37.92595 29.90915,-83.04 C 317.65137,136.59149 331.3775,98.6 331.94826,97.28 c 0.57078,-1.32 8.24969,-15.576 17.06428,-31.68 8.8146,-16.104 19.664,-35.94 24.1098,-44.08 l 8.08326,-14.8 h 46.51722 c 26.03203,0 46.51718,0.1221482 46.51718,0.2773712 0,0.1525542 -9.59514,17.6845538 -21.3225,38.9600018 C 441.19014,67.232816 419.92666,105.808 405.66534,131.68 c -14.26134,25.872 -26.184,47.4 -26.49484,47.84 -0.72087,1.02044 -48.55824,87.51402 -49.11296,88.8 -0.77943,1.80685 -91.92522,166.70256 -92.19406,166.79216 -0.14759,0.0492 -10.25294,-18.23491 -22.45634,-40.63136 z"
       id="path32"
       inkscape:connector-curvature="0" />
    <path
       style="fill:#f5961c;stroke-width:0.31999999"
       d="m 215.59791,394.91117 c -12.09885,-22.15962 -22.00302,-40.55594 -22.00926,-40.88071 -0.02,-1.04252 29.56857,-117.19578 29.81533,-117.04328 0.13071,0.0808 3.63618,6.39497 7.78993,14.03154 4.15375,7.63656 7.75275,14.05103 7.99778,14.25438 0.5514,0.45763 0.22405,0.98231 5.68572,-9.1131 17.73711,-32.78549 38.76587,-71.41503 39.02044,-71.68 0.19842,-0.20652 0.24426,-0.0363 0.12927,0.48 -0.48546,2.17974 -13.94535,81.69467 -13.93431,82.31754 0.0118,0.66523 0.0529,0.64852 0.51824,-0.21102 0.27798,-0.5134 11.65742,-31.9774 25.28764,-69.92 35.73801,-99.484347 35.27376,-98.19925 36.3328,-100.567762 0.53289,-1.191772 1.08032,-2.097993 1.21651,-2.01382 0.13619,0.08417 10.30611,18.943792 22.59981,41.910282 12.29369,22.96648 22.46019,41.75893 22.59219,41.76101 0.132,0.002 0.24067,-2.12023 0.24147,-4.71623 0,-2.596 0.36064,-40.90916 0.79965,-85.140368 0.52966,-53.367613 0.90973,-80.6288048 1.12979,-81.0399984 C 381.13654,6.7311485 381.98003,6.72 427.69126,6.72 453.74109,6.72 474.24,6.8421475 474.24,6.9973712 474.24,7.1499254 464.64486,24.681925 452.9175,45.957373 441.19014,67.232816 419.93158,105.808 405.67632,131.68 c -14.2553,25.872 -26.09402,47.256 -26.30832,47.52 -0.59642,0.73477 -2.01078,3.27193 -26.36224,47.28903 -12.49021,22.57696 -22.85254,41.44096 -23.02742,41.92 -0.48624,1.33179 -91.80849,166.60102 -92.11453,166.70303 -0.1474,0.0491 -10.16705,-18.04128 -22.2659,-40.20089 z M 146.38498,267.1757 c -0.13186,-0.21336 -0.22895,-0.76318 -0.21576,-1.22182 0.0366,-1.27028 18.66076,-136.49052 18.82127,-136.65104 0.0771,-0.0771 0.26995,-0.006 0.42856,0.15849 0.22095,0.22883 27.27688,50.02767 36.67232,67.49867 0.85184,1.584 5.91397,10.93864 11.24919,20.7881 7.59786,14.02657 9.61359,17.98676 9.29992,18.27106 -0.27723,0.25125 -68.93301,28.74828 -75.64811,31.39933 -0.2022,0.0798 -0.47552,-0.0294 -0.60739,-0.24279 z M 98.883424,180.32412 C 98.034768,179.30156 86.487475,157.83018 86.307379,156.93986 86.136205,156.09364 98.043306,9.8672816 98.432694,8.0337136 c 0.09283,-0.4370954 0.280256,-0.6432998 0.436304,-0.48 0.150464,0.1574576 10.818562,19.5767544 23.706882,43.1539924 20.92165,38.272982 23.40002,42.954774 23.12268,43.68 -0.17085,0.446761 -10.68402,20.073834 -23.36258,43.615714 -19.2962,35.82965 -23.117215,42.72477 -23.452556,42.3207 z"
       id="path30"
       inkscape:connector-curvature="0" />
    <path
       style="fill:#f27e29;stroke-width:0.31999999"
       d="m 215.59791,394.91117 c -12.09885,-22.15962 -22.00302,-40.55594 -22.00926,-40.88071 -0.02,-1.03798 29.568,-117.19613 29.81368,-117.0443 0.1298,0.0802 3.58228,6.29916 7.67217,13.81985 4.08989,7.52069 7.8233,14.17799 8.29647,14.79399 0.47316,0.616 5.65221,9.976 11.50898,20.8 5.85677,10.824 10.82993,19.87606 11.05147,20.11568 0.33656,0.36404 0.43188,0.33773 0.57964,-0.16 0.0973,-0.32762 1.77256,-8.87568 3.7229,-18.99568 2.76259,-14.33458 3.74996,-18.85957 4.46881,-20.48 0.50751,-1.144 12.0383,-33.04 25.62399,-70.88 35.34617,-98.449101 34.82604,-97.008822 35.89721,-99.404461 0.53702,-1.201001 1.08784,-2.114774 1.22403,-2.030601 0.13619,0.08417 10.30611,18.943792 22.59981,41.910282 12.29369,22.96648 22.46019,41.75893 22.59219,41.76101 0.132,0.002 0.24067,-2.12023 0.24147,-4.71623 0,-2.596 0.36064,-40.90916 0.79965,-85.140368 0.52966,-53.367613 0.90973,-80.6288048 1.12979,-81.0399984 C 381.13654,6.7311485 381.98003,6.72 427.69126,6.72 453.74109,6.72 474.24,6.8421475 474.24,6.9973712 474.24,7.1499254 464.64486,24.681925 452.9175,45.957373 441.19014,67.232816 419.93158,105.808 405.67632,131.68 c -14.2553,25.872 -26.09402,47.256 -26.30832,47.52 -0.59642,0.73477 -2.01078,3.27193 -26.36224,47.28903 -12.49021,22.57696 -22.85254,41.44096 -23.02742,41.92 -0.48624,1.33179 -91.80849,166.60102 -92.11453,166.70303 -0.1474,0.0491 -10.16705,-18.04128 -22.2659,-40.20089 z M 146.38498,267.1757 c -0.13186,-0.21336 -0.22895,-0.76318 -0.21576,-1.22182 0.0366,-1.27028 18.66076,-136.49052 18.82127,-136.65104 0.0771,-0.0771 0.26995,-0.006 0.42856,0.15849 0.22095,0.22883 27.27688,50.02767 36.67232,67.49867 0.85184,1.584 5.91397,10.93864 11.24919,20.7881 7.59786,14.02657 9.61359,17.98676 9.29992,18.27106 -0.27723,0.25125 -68.93301,28.74828 -75.64811,31.39933 -0.2022,0.0798 -0.47552,-0.0294 -0.60739,-0.24279 z M 98.883424,180.32412 C 98.034768,179.30156 86.487475,157.83018 86.307379,156.93986 86.136205,156.09364 98.043306,9.8672816 98.432694,8.0337136 c 0.09283,-0.4370954 0.280256,-0.6432998 0.436304,-0.48 0.150464,0.1574576 10.818562,19.5767544 23.706882,43.1539924 20.92165,38.272982 23.40002,42.954774 23.12268,43.68 -0.17085,0.446761 -10.68402,20.073834 -23.36258,43.615714 -19.2962,35.82965 -23.117215,42.72477 -23.452556,42.3207 z"
       id="path28"
       inkscape:connector-curvature="0" />
    <path
       style="fill:#f06637;stroke-width:0.31999999"
       d="m 215.633,394.97558 c -12.07963,-22.12416 -21.89693,-40.39782 -21.81621,-40.60819 0.0807,-0.21033 5.86095,-4.05241 12.84498,-8.53792 31.31701,-20.11353 53.72314,-34.54472 54.46836,-35.08164 1.05408,-0.75944 1.35472,-2.05056 5.6321,-24.18783 1.88102,-9.73511 3.59666,-17.82576 3.83923,-18.1052 0.2412,-0.27786 0.43854,-0.74693 0.43854,-1.04238 0,-0.41543 58.07075,-162.45954 61.11267,-170.53242 0.38131,-1.012 0.81261,-1.84 0.9584,-1.84 0.14583,0 10.38013,18.9 22.74291,42 12.36279,23.1 22.61252,42.17246 22.77719,42.38324 0.16502,0.21124 0.18032,0.5882 0.0341,0.83987 -0.14592,0.25114 -4.1433,3.60668 -8.8831,7.45675 -10.68208,8.67691 -11.91376,9.67842 -14.90218,12.11731 -1.32,1.07727 -3.264,2.65985 -4.32,3.51686 -1.056,0.857 -12.56442,10.20893 -25.57424,20.78208 -13.00985,10.57314 -24.52985,19.93455 -25.60001,20.80314 -1.07016,0.86859 -3.02575,2.45968 -4.34575,3.53576 -1.32,1.07608 -3.912,3.18436 -5.76,4.68506 -15.15911,12.31025 -17.77289,14.46283 -17.86667,14.71411 -0.0621,0.16646 12.14751,0.28582 29.23733,0.28582 27.79552,0 29.33536,0.0296 29.1807,0.56 -0.26634,0.91335 -91.67511,166.29459 -91.96748,166.39203 -0.14736,0.0491 -10.15125,-18.01229 -22.23088,-40.13645 z M 146.69539,265.68 c 0.10541,-0.66 4.29489,-31.152 9.30997,-67.76 5.01508,-36.608 9.22549,-66.96412 9.35648,-67.45804 0.21093,-0.79536 2.19559,2.71385 17.35816,30.69215 9.416,17.3746 17.7402,32.75472 18.49821,34.17804 0.75801,1.42332 5.92723,10.98344 11.48714,21.24471 5.84753,10.79208 9.98789,18.7723 9.82179,18.93072 -0.29098,0.27752 -75.43763,31.37242 -75.81734,31.37242 -0.11333,0 -0.11981,-0.54 -0.0144,-1.2 z M 98.475459,179.79697 c -0.257257,-0.41633 -3.068272,-5.53489 -6.246704,-11.37457 L 86.449792,157.8048 92.654918,83.152371 C 96.067738,42.093536 98.900534,8.3118294 98.950022,8.0819126 99.017494,7.7684486 123.5761,52.392435 145.41315,92.507315 l 0.62456,1.147319 -23.14081,43.012686 c -12.72744,23.65697 -23.323706,43.20932 -23.547252,43.44965 -0.339712,0.36523 -0.483245,0.31268 -0.874189,-0.32 z M 379.32621,164.8 c 0.10957,-8.008 0.49491,-46.672 0.85635,-85.92 0.36141,-39.248 0.71568,-71.54 0.78723,-71.76 0.1033,-0.3175715 9.72685,-0.4 46.70016,-0.4 26.06186,0 46.57005,0.1221469 46.57005,0.2773712 0,0.1525542 -9.59514,17.6845538 -21.3225,38.9600018 C 441.19014,67.232816 419.93248,105.808 405.67827,131.68 c -14.25417,25.872 -26.05949,47.184 -26.23398,47.36 -0.20967,0.2115 -0.2497,-4.61668 -0.11808,-14.24 z"
       id="path26"
       inkscape:connector-curvature="0" />
    <path
       style="fill:#f06525;stroke-width:0.31999999"
       d="m 215.84,394.69194 c -11.968,-21.92314 -21.80181,-40.04077 -21.85292,-40.26135 -0.0522,-0.22531 5.48734,-3.98502 12.64,-8.57885 31.34178,-20.1294 53.75747,-34.56674 54.50305,-35.10391 1.05503,-0.76012 1.3593,-2.06797 5.62735,-24.18783 2.41808,-12.5321 3.54119,-17.71518 3.90039,-18 0.39524,-0.3134 6.83806,-0.4 29.76061,-0.4 28.46699,0 29.25192,0.0162 29.09899,0.60107 -0.17741,0.67836 -90.24664,163.91717 -91.06847,165.04978 -0.29095,0.40096 -0.601,0.73181 -0.689,0.7352 -0.088,0.004 -9.952,-17.93095 -21.92,-39.85411 z M 146.65988,265.89162 c 0.10476,-0.60039 4.32405,-31.25962 9.3762,-68.13162 5.05214,-36.872 9.27081,-67.13966 9.37482,-67.26147 0.10401,-0.1218 8.3921,14.9262 18.41798,33.44 10.02588,18.51381 22.75595,42.01347 28.28902,52.22147 5.53309,10.208 10.11786,18.77749 10.18839,19.04331 0.0984,0.37095 -8.56129,4.0699 -37.24902,15.91073 -20.5575,8.48509 -37.64965,15.52683 -37.98257,15.64832 -0.53874,0.19659 -0.58435,0.10085 -0.41482,-0.87074 z M 97.999677,178.50577 C 97.47345,177.5676 96.537613,175.864 95.920038,174.72 c -0.617571,-1.144 -2.961878,-5.44879 -5.209574,-9.56619 -3.549421,-6.50195 -4.035946,-7.5675 -3.700534,-8.10457 0.682294,-1.09253 57.04713,-61.418846 57.22212,-61.243854 0.0927,0.09274 -0.22694,0.930467 -0.71041,1.861616 -2.07895,4.004068 -44.126894,82.038108 -44.335173,82.278768 -0.126505,0.14618 -0.66056,-0.50182 -1.18679,-1.44 z M 379.33408,170.88 c 0.10339,-4.312 0.48691,-42.616 0.85222,-85.12 0.36532,-42.504 0.72759,-77.604 0.80503,-78 l 0.14086,-0.72 h 46.39392 c 25.51664,0 46.39389,0.078117 46.39389,0.173593 0,0.095476 -9.33949,17.123476 -20.7544,37.840001 C 441.75069,65.770118 420.6361,104.104 406.24429,130.24 c -14.39181,26.136 -26.37648,47.736 -26.63258,48 -0.40777,0.42034 -0.44227,-0.49452 -0.27763,-7.36 z"
       id="path24"
       inkscape:connector-curvature="0" />
    <path
       style="fill:#cb4c26;stroke-width:0.31999999"
       d="m 238.25204,433.41229 c 0.0767,-0.33677 2.66864,-13.64429 5.75984,-29.57229 5.43759,-28.01818 6.55967,-33.79654 8.94812,-46.08 0.616,-3.168 1.624,-8.352 2.24,-11.52 0.616,-3.168 1.63097,-8.388 2.25548,-11.6 0.62452,-3.212 1.85886,-9.584 2.74298,-14.16 0.88413,-4.576 1.8811,-9.49613 2.21548,-10.93362 0.33439,-1.43749 2.26745,-11.13426 4.29568,-21.54839 2.02824,-10.41413 3.76881,-19.066 3.86793,-19.22638 0.10633,-0.17206 12.25594,-0.29161 29.63557,-0.29161 27.31101,0 29.44051,0.0387 29.25155,0.53112 -0.40713,1.06095 -90.49609,164.12149 -90.91804,164.56117 -0.37107,0.38665 -0.41382,0.36342 -0.29459,-0.16 z M 97.999677,178.50577 C 97.47345,177.5676 96.537613,175.864 95.920038,174.72 c -0.617571,-1.144 -2.961878,-5.44879 -5.209574,-9.56619 -3.549421,-6.50195 -4.035946,-7.5675 -3.700534,-8.10457 0.682294,-1.09253 57.04713,-61.418846 57.22212,-61.243854 0.0927,0.09274 -0.22694,0.930467 -0.71041,1.861616 -2.07895,4.004068 -44.126894,82.038108 -44.335173,82.278768 -0.126505,0.14618 -0.66056,-0.50182 -1.18679,-1.44 z M 379.53149,168.144 c 0.009,-8.05244 1.49766,-160.7064173 1.57024,-161.024 0.0379,-0.1657875 92.81827,-0.072233 92.81827,0.093593 0,0.095476 -9.33949,17.123476 -20.7544,37.840001 C 441.75069,65.770118 420.6353,104.104 406.24246,130.24 c -14.3928,26.136 -26.29331,47.6568 -26.4456,47.824 -0.15635,0.17169 -0.27187,-4.14579 -0.26537,-9.92 z"
       id="path22"
       inkscape:connector-curvature="0" />
  </g>
</svg>
