<svg xmlns="http://www.w3.org/2000/svg" viewBox="0 0 223.67 256"><defs><style>.cls-1{fill:#009c5b;fill-rule:evenodd;}</style></defs><title>256 Green Icon</title><g id="Layer_2" data-name="Layer 2"><g id="Layer_1-2" data-name="Layer 1"><path class="cls-1" d="M136.93,228.85l42.28-54.66c2.77.83,24.3,13.25,26.18,15.23l-68.46,39.43ZM87.58,229l-69-40.12L44.8,174.3,87.58,229Zm-29-56.72c14.12,21.63,38,46.6,55.06,66.73L165,172.08l-106.34.18ZM211.84,98.63c-3.72,9.51-25.39,59.85-25.9,65.26l26,14.5-.07-79.76ZM12,178,38.14,164l-26-65.3L12,178Zm99.9-113.67,54.86,95.88-110.22.06,55.36-95.94ZM123.82,60l84.83,12.22-31.72,79.91L123.82,60Zm-77,91.67c-2.55-4.35-31.39-76.28-32-79.73l85.22-12.2L46.82,151.66ZM187,56.56l-69.09-9.72.09-30,69,39.73Zm-150.13-.2,68.86-39.55V46.64L36.88,56.36ZM.71,63.81,0,190.48,113.85,256,223,192.19l.65-126.81L112.18,0Z"/></g></g></svg>